<svg xmlns="http://www.w3.org/2000/svg" width="34.306" height="34.306" viewBox="0 0 34.306 34.306">
  <path id="iconfinder_phone_1608790" d="M224.306,153.514a7.574,7.574,0,0,1-.229,1.618,9.116,9.116,0,0,1-.482,1.572,6.152,6.152,0,0,1-2.8,2.432,8.505,8.505,0,0,1-5.472,1.09,9.917,9.917,0,0,1-1.319-.287q-.734-.207-1.09-.333t-1.273-.47q-.918-.344-1.124-.413a20.781,20.781,0,0,1-4.015-1.9,38.542,38.542,0,0,1-11.013-11.013,20.78,20.78,0,0,1-1.9-4.015q-.069-.207-.413-1.124t-.47-1.273q-.126-.356-.333-1.09a9.916,9.916,0,0,1-.287-1.319,8.505,8.505,0,0,1,1.09-5.472,6.152,6.152,0,0,1,2.432-2.8,9.118,9.118,0,0,1,1.572-.482,7.573,7.573,0,0,1,1.618-.229,1.285,1.285,0,0,1,.482.069q.413.138,1.216,1.744.252.436.688,1.239t.8,1.457q.367.654.711,1.228.069.092.4.574a6.412,6.412,0,0,1,.493.815,1.5,1.5,0,0,1,.161.654,1.9,1.9,0,0,1-.654,1.147,11.189,11.189,0,0,1-1.423,1.262,13.816,13.816,0,0,0-1.423,1.216,1.748,1.748,0,0,0-.654,1.055,1.55,1.55,0,0,0,.115.516,5.013,5.013,0,0,0,.2.47q.08.161.321.551t.264.436a22.741,22.741,0,0,0,9.384,9.384q.046.023.436.264t.551.321a5.016,5.016,0,0,0,.47.2,1.55,1.55,0,0,0,.516.115,1.748,1.748,0,0,0,1.055-.654,13.814,13.814,0,0,0,1.216-1.423,11.185,11.185,0,0,1,1.262-1.423,1.9,1.9,0,0,1,1.147-.654,1.5,1.5,0,0,1,.654.161,6.409,6.409,0,0,1,.815.493q.482.333.574.4.574.344,1.228.711t1.457.8q.8.436,1.239.688,1.606.8,1.744,1.216A1.285,1.285,0,0,1,224.306,153.514Z" transform="translate(-191 -127)" fill="none" stroke="#fff" stroke-width="2"/>
</svg>
