<svg xmlns="http://www.w3.org/2000/svg" width="43.306" height="45.298" viewBox="0 0 43.306 45.298">
  <g id="iconfinder_b-35_4229855" transform="translate(-7.383 -1.902)">
    <path id="Path_28" data-name="Path 28" d="M57.614,34.991a1.711,1.711,0,0,0,.664.108,1.754,1.754,0,0,0,1.185-.521,1.678,1.678,0,0,0,.5-1.257,6.718,6.718,0,0,1,4.7-6.517,1.685,1.685,0,0,0,.539-.269,1.8,1.8,0,0,0,.682-1.131,1.7,1.7,0,0,0-.323-1.329,6.679,6.679,0,0,1-.018-8.025l.126-.144a.781.781,0,0,0,.144-.269.255.255,0,0,0,.036-.108,1.784,1.784,0,0,0-.108-1.329,1.743,1.743,0,0,0-1.041-.88A6.691,6.691,0,0,1,60,6.839a1.677,1.677,0,0,0-.108-.61,1.734,1.734,0,0,0-2.208-1.077,6.888,6.888,0,0,1-2.172.359A6.888,6.888,0,0,1,50,2.638a1.5,1.5,0,0,0-.413-.413,1.774,1.774,0,0,0-2.46.413,6.748,6.748,0,0,1-5.494,2.837A6.508,6.508,0,0,1,39.5,5.116a1.794,1.794,0,0,0-1.831.431,1.678,1.678,0,0,0-.5,1.257,6.7,6.7,0,0,1-4.7,6.5,1.724,1.724,0,0,0-.575.287,1.769,1.769,0,0,0-.359,2.46,6.679,6.679,0,0,1,0,8.043,2.193,2.193,0,0,0-.251.5,1.694,1.694,0,0,0,.126,1.347,1.853,1.853,0,0,0,1.023.862,6.716,6.716,0,0,1,4.7,6.481,1.613,1.613,0,0,0,.09.646,1.759,1.759,0,0,0,.9,1.005,1.792,1.792,0,0,0,1.329.072,7.085,7.085,0,0,1,2.19-.359,6.693,6.693,0,0,1,5.476,2.837,1.507,1.507,0,0,0,.413.413,1.733,1.733,0,0,0,1.023.323c.108,0,.2-.018.305-.018a1.738,1.738,0,0,0,1.131-.718A6.7,6.7,0,0,1,57.614,34.991Zm-9.049,1.472a8.519,8.519,0,0,0-6.912-3.591,8.408,8.408,0,0,0-2.747.467,8.431,8.431,0,0,0-5.925-8.2,8.4,8.4,0,0,0-.018-10.144A8.4,8.4,0,0,0,38.906,6.8a8.285,8.285,0,0,0,2.729.449,8.445,8.445,0,0,0,6.912-3.591A8.535,8.535,0,0,0,55.5,7.252,8.584,8.584,0,0,0,58.207,6.8a8.366,8.366,0,0,0,5.943,8.133l-.018.018A8.4,8.4,0,0,0,64.168,25.1a8.441,8.441,0,0,0-5.961,8.2h-.018A8.389,8.389,0,0,0,48.566,36.463Z" transform="translate(-19.527)" fill="#fff"/>
    <path id="Path_29" data-name="Path 29" d="M91.079,58a8.079,8.079,0,1,0,8.079,8.079A8.091,8.091,0,0,0,91.079,58Zm0,14.4a6.3,6.3,0,1,1,6.3-6.3A6.31,6.31,0,0,1,91.079,72.4Z" transform="translate(-62.041 -46.026)" fill="#fff"/>
    <path id="Path_30" data-name="Path 30" d="M22.988,171.628a.9.9,0,0,0-1.239.251l-4.291,6.589-2.208-4.506a.872.872,0,0,0-.79-.5l-4.542-.018,4.489-6.876a.9.9,0,0,0,.144-.485h0a.885.885,0,0,0-.9-.88.875.875,0,0,0-.754.431L7.53,173.854a.895.895,0,0,0,.736,1.382l5.638.018,2.657,5.422a.9.9,0,0,0,.736.5h.054a.858.858,0,0,0,.736-.395l5.153-7.9A.9.9,0,0,0,22.988,171.628Z" transform="translate(0 -133.979)" fill="#fff"/>
    <path id="Path_31" data-name="Path 31" d="M175.171,173.753l-5.4-8.277a.894.894,0,1,0-1.49.987l4.506,6.894-4.56.018a.872.872,0,0,0-.79.5l-2.208,4.506-4.309-6.589a.894.894,0,1,0-1.49.987l5.171,7.9a.881.881,0,0,0,.736.395h.054a.856.856,0,0,0,.736-.5l2.639-5.422,5.638-.018a.864.864,0,0,0,.772-.467A.811.811,0,0,0,175.171,173.753Z" transform="translate(-124.623 -133.878)" fill="#fff"/>
  </g>
</svg>
