<svg xmlns="http://www.w3.org/2000/svg" xmlns:xlink="http://www.w3.org/1999/xlink" width="18" height="18" viewBox="0 0 18 18">
  <defs>
    <clipPath id="clip-path">
      <circle id="Ellipse_6" data-name="Ellipse 6" cx="9" cy="9" r="9" transform="translate(829 20)" fill="#fff"/>
    </clipPath>
  </defs>
  <g id="Mask_Group_5" data-name="Mask Group 5" transform="translate(-829 -20)" clip-path="url(#clip-path)">
    <g id="iconfinder_United_Kingdom_2361499" transform="translate(821.553 13.064)">
      <path id="rect6883" d="M7.585,5.936A1.135,1.135,0,0,0,6.447,7.074V24.8a1.135,1.135,0,0,0,1.138,1.138H25.309A1.135,1.135,0,0,0,26.447,24.8V7.074a1.135,1.135,0,0,0-1.138-1.138H7.585Z" fill="#00247d"/>
      <path id="path4589" d="M6.447,39.124v1.741l8.492,4.9-8.492,4.9v1.741l10-5.774,10,5.774V50.671l-8.492-4.9,8.492-4.9V39.124l-10,5.774Z" transform="translate(0 -29.832)" fill="#cf142b"/>
      <path id="path4587" d="M14.727,5.936v8.28H6.447v3.44h8.28v8.28h3.44v-8.28h8.28v-3.44h-8.28V5.936h-3.44Z" fill="#cf142b"/>
      <path id="rect4572" d="M14.393,5.936v7.557L6.447,8.906v.772l7.281,4.2H12.05l-5.6-3.235v.772l4.265,2.463H6.447v.669H13.9c.455,0,.734-.019,1.157-.019v-8.6Zm3.44,0v8.617c.408,0,.789,0,1.157,0h7.457v-.669H22.182l4.265-2.463v-.772l-5.6,3.235H19.166l7.281-4.2V8.906L18.5,13.493V5.936ZM15.062,17.329c-.386,0-.789-.008-1.158-.008H6.447v.669h4.265L6.447,20.453v.772l5.6-3.235h1.678l-7.281,4.2v.772l7.946-4.588v7.557h.669V17.329Zm2.771,0v8.607H18.5V18.379l7.946,4.588v-.772l-7.281-4.2h1.678l5.6,3.235v-.772L22.182,17.99h4.265v-.669H18.99c-.423,0-1.158.008-1.158.008Z" fill="#fff"/>
    </g>
  </g>
</svg>
