<svg xmlns="http://www.w3.org/2000/svg" width="42.144" height="30.836" viewBox="0 0 42.144 30.836">
  <path id="Path_27" data-name="Path 27" d="M47.782,47.192a5.117,5.117,0,0,1-3.436,1.46q-15.981.1-31.963,0a5.283,5.283,0,0,1-5.059-5.059q-.066-10.309,0-20.619a5.281,5.281,0,0,1,5.059-5.059q15.981-.1,31.963,0A5.276,5.276,0,0,1,49.4,22.974q.06,10.31,0,20.619a5.05,5.05,0,0,1-.946,2.81.681.681,0,0,1-.192.491A.731.731,0,0,1,47.782,47.192Zm-14.2-13.346-.823.795a6.744,6.744,0,0,1-9.15,0l-.18-.173-13,12.078a3.588,3.588,0,0,0,1.976.647q15.963.1,31.927,0a3.658,3.658,0,0,0,2.208-.82L33.581,33.845ZM9.468,20.97a3.59,3.59,0,0,0-.681,2.022q-.066,10.291,0,20.583A3.608,3.608,0,0,0,9.4,45.5L22.374,33.445,9.468,20.97Zm37.644-.189L34.634,32.828l12.85,12.421a3.562,3.562,0,0,0,.457-1.674q.06-10.292,0-20.583a3.643,3.643,0,0,0-.83-2.211Zm-1.125-.948a3.54,3.54,0,0,0-1.659-.454c-10.626-.066-21.253,0-31.879,0a3.606,3.606,0,0,0-1.919.583c4.711,4.558,9.4,9.139,14.14,13.667a5.251,5.251,0,0,0,7.073-.044L45.987,19.833Z" transform="translate(-7.291 -17.865)" fill="#fff"/>
</svg>
