<?xml version="1.0" encoding="UTF-8"?> <svg xmlns="http://www.w3.org/2000/svg" width="82" height="67" viewBox="0 0 82 67" fill="none"><g id="Icon 2/users"><path id="Path" d="M62.9998 53.5L68.2567 55.6863C68.2567 55.6863 81.3823 49.0531 81.2526 48.9816C79.3011 47.9057 75.3981 45.7538 75.3981 45.7538C74.6246 45.3272 74.1433 44.5062 74.1433 43.614C74.1433 43.614 73.7833 40.6369 73.9998 40L75.9792 35.3976L76.2908 35.1519C77.0211 34.5752 77.4482 33.6895 77.4482 32.7515V31.0757C77.4482 30.6165 77.3183 30.167 77.0728 29.7805C76.8418 29.4144 76.748 28.9757 76.8118 28.5455L76.9525 27.5796C77.2593 25.4838 76.4412 23.3613 74.7148 22.1641C74.1229 21.7533 73.5286 21.3649 73.0413 21.0951C71.1284 20.0356 68.6344 19.6766 66.7973 20.3219C66.197 20.5331 66.0635 21.4816 64.9614 21.8682C63.1159 22.5158 62.4061 24.226 62.1523 25.1392C62.044 25.5298 62.0235 25.9372 62.0235 26.3428V29.2316C62.0235 29.4736 61.9694 29.7125 61.8659 29.9307C61.7276 30.2215 61.6554 30.5399 61.6554 30.8626V32.7654C61.6554 33.7102 62.0175 34.6183 62.6648 35.2992L62.7574 35.3976L64.7473 39.5855C65.1299 40.3911 65.1857 43.4845 64.9998 44C64.6028 45.101 63.8543 45.8377 62.7923 46.3962L55.9998 49.951" stroke="#00967f" stroke-width="1.4"></path><path id="Path_2" d="M19.2541 53.5L13.9972 55.6863C13.9972 55.6863 0.871602 49.0531 1.00127 48.9816C2.95277 47.9057 6.85576 45.7538 6.85576 45.7538C7.62934 45.3272 8.11058 44.5062 8.11058 43.614C8.11058 43.614 8.47065 40.6369 8.2541 40L6.27468 35.3976L5.96308 35.1519C5.23281 34.5752 4.80572 33.6895 4.80572 32.7515V31.0757C4.80572 30.6165 4.93565 30.167 5.18108 29.7805C5.41207 29.4144 5.50591 28.9757 5.44215 28.5455L5.30139 27.5796C4.9946 25.4838 5.8127 23.3613 7.53911 22.1641C8.13103 21.7533 8.72535 21.3649 9.21259 21.0951C11.1255 20.0356 13.6195 19.6766 15.4566 20.3219C16.0569 20.5331 16.1904 21.4816 17.2925 21.8682C19.138 22.5158 19.8478 24.226 20.1017 25.1392C20.2099 25.5298 20.2304 25.9372 20.2304 26.3428V29.2316C20.2304 29.4736 20.2845 29.7125 20.388 29.9307C20.5263 30.2215 20.5985 30.5399 20.5985 30.8626V32.7654C20.5985 33.7102 20.2364 34.6183 19.5891 35.2992L19.4965 35.3976L17.5066 39.5855C17.124 40.3911 17.0682 43.4845 17.2541 44C17.6511 45.101 18.3996 45.8377 19.4616 46.3962L26.2541 49.951" stroke="#00967f" stroke-width="1.4"></path><path id="Path_3" fill-rule="evenodd" clip-rule="evenodd" d="M31.2857 47.4235C32.0692 47.0184 32.5602 46.2176 32.5602 45.3447V40.0161C32.5602 39.3437 32.4425 38.6761 32.2131 38.0428L27.984 29.1175L26.5502 28.0559C25.6514 27.391 25.1236 26.3476 25.1236 25.2397V21.2383C25.1236 20.3924 25.3768 19.5652 25.8524 18.8614C26.303 18.1936 26.4849 17.3834 26.3612 16.59L25.9915 14.2165C25.4565 10.7885 26.8653 7.32454 29.7816 5.38898C31.1453 4.48298 32.5743 3.58742 33.705 2.99953C37.4297 1.06479 42.2863 0.409433 45.8637 1.58779C47.0347 1.97337 47.2939 3.70546 49.4399 4.4114C53.4274 5.72317 54.6924 9.42321 55.0419 10.875C55.137 11.2701 55.1608 11.6738 55.1608 12.0798V17.8526C55.1608 18.2975 55.2666 18.7362 55.4675 19.1341C55.7362 19.6647 55.8765 20.2497 55.8765 20.8429V25.5416C55.8765 26.4753 55.5008 27.3706 54.8315 28.0308L53.7305 29.1175L50.3519 37.7611C49.9393 38.5758 49.7241 39.474 49.7241 40.385V43.8638C49.7241 45.6417 50.7418 47.2669 52.3528 48.062L62.6921 53.164C63.4263 53.5263 63.4378 54.5693 62.7116 54.9476L41.5 66L19.3532 55.397C18.6084 55.0404 18.5922 53.9859 19.3257 53.6067L31.2857 47.4235Z" stroke="black" stroke-width="1.4"></path></g></svg> 