<?xml version="1.0" encoding="UTF-8"?> <svg xmlns="http://www.w3.org/2000/svg" width="87" height="83" viewBox="0 0 87 83" fill="none"><g id="Icon 2/star"><path id="Star" fill-rule="evenodd" clip-rule="evenodd" d="M44.6694 64.4662C43.971 63.9628 43.029 63.9628 42.3306 64.4662L21.5254 79.4612C19.9619 80.5881 17.8659 79.0691 18.4501 77.2325L26.2443 52.7298C26.504 51.9132 26.2147 51.0219 25.5249 50.5135L4.85523 35.2812C3.30543 34.1391 4.10598 31.6814 6.03112 31.6712L31.6655 31.5353C32.5249 31.5307 33.2852 30.9777 33.5543 30.1616L41.6006 5.7602C42.2046 3.92862 44.7954 3.92862 45.3994 5.76019L53.4457 30.1616C53.7148 30.9777 54.4751 31.5307 55.3345 31.5353L80.9689 31.6712C82.894 31.6814 83.6946 34.1391 82.1448 35.2812L61.4751 50.5135C60.7853 51.0219 60.496 51.9132 60.7557 52.7298L68.5499 77.2325C69.1341 79.0691 67.0381 80.5881 65.4746 79.4613L44.6694 64.4662Z" stroke="black" stroke-width="1.4"></path><g id="Path"><path d="M56 47.5H32H56Z" fill="#FAFAFA"></path><path d="M56 47.5H32" stroke="#00967f" stroke-width="1.4"></path></g><g id="Path_2"><path d="M50.4167 52.5H37.5833H50.4167Z" fill="#FAFAFA"></path><path d="M50.4167 52.5H37.5833" stroke="black" stroke-width="1.4"></path></g><path id="Oval Copy 6" fill-rule="evenodd" clip-rule="evenodd" d="M44 43C46.2091 43 48 41.2091 48 39C48 36.7909 46.2091 35 44 35C41.7909 35 40 36.7909 40 39C40 41.2091 41.7909 43 44 43Z" stroke="#00967f" stroke-width="1.4"></path></g></svg> 