<?xml version="1.0" encoding="UTF-8"?> <svg xmlns="http://www.w3.org/2000/svg" width="62" height="77" viewBox="0 0 62 77" fill="none"><g id="Icon 2/kachestvo"><path id="Path" d="M8 65H4.5C2.567 65 1 63.433 1 61.5V4.5C1 2.567 2.567 1 4.5 1H47.5C49.433 1 51 2.567 51 4.5V61.5C51 63.433 49.433 65 47.5 65H35.5V65" stroke="black" stroke-width="1.4"></path><path id="Path_2" d="M55.5 9H57.5C59.433 9 61 10.567 61 12.5V69.5C61 71.433 59.433 73 57.5 73H32.5V73" stroke="black" stroke-width="1.4"></path><path id="Path Copy 3" d="M17.6918 35.0461C18.0065 33.6513 19.9935 33.6513 20.3082 35.0461C20.7218 36.8751 22.8201 37.7449 24.4059 36.7431C25.6151 35.9805 27.0195 37.3849 26.2569 38.5941C25.2551 40.1799 26.1249 42.2782 27.9539 42.6918C29.3487 43.0065 29.3487 44.9935 27.9539 45.3082C26.1249 45.7218 25.2551 47.8201 26.2569 49.4059C27.0195 50.6151 25.6151 52.0195 24.4059 51.2569C22.8201 50.2551 20.7218 51.1249 20.3082 52.9539C19.9935 54.3487 18.0065 54.3487 17.6918 52.9539C17.2782 51.1249 15.1799 50.2551 13.5941 51.2569C12.3849 52.0195 10.9805 50.6151 11.7431 49.4059C12.7449 47.8201 11.8751 45.7218 10.0461 45.3082C8.65131 44.9935 8.65131 43.0065 10.0461 42.6918C11.8751 42.2782 12.7449 40.1799 11.7431 38.5941C10.9805 37.3849 12.3849 35.9805 13.5941 36.7431C15.1799 37.7449 17.2782 36.8751 17.6918 35.0461Z" fill="#FAFAFA" stroke="#00967f" stroke-width="1.4"></path><path id="Oval Copy" d="M19 49C21.7614 49 24 46.7614 24 44C24 41.2386 21.7614 39 19 39C16.2386 39 14 41.2386 14 44C14 46.7614 16.2386 49 19 49Z" fill="#FAFAFA" stroke="#00967f" stroke-width="1.4"></path><path id="Path Copy 4" d="M18.0173 68.0305L11 75V57H26V75L18.9827 68.0305L18.5 67.5525L18.0173 68.0305Z" fill="#FAFAFA" stroke="#00967f" stroke-width="1.4"></path><path id="Path Copy" d="M9.61111 14.5H42" stroke="black" stroke-width="1.4"></path><path id="Path Copy 2" d="M9 23H36" stroke="black" stroke-width="1.4"></path><path id="Path Copy 6" d="M34.5714 49.5H42" stroke="black" stroke-width="1.4"></path></g></svg> 