<svg id="Layer_1" data-name="Layer 1" xmlns="http://www.w3.org/2000/svg" viewBox="0 0 185.11 35.37"><defs><style>.cls-1{fill:#fff;}.cls-1,.cls-3{fill-rule:evenodd;}.cls-2{fill:#ffcf35;}.cls-3,.cls-4{fill:#1a1a18;}</style></defs><title>logowhite</title><path class="cls-1" d="M72.62,11.06a8.65,8.65,0,0,1-.37,2.6,5.77,5.77,0,0,1-1.11,2.06,5.2,5.2,0,0,1-1.82,1.38,6.14,6.14,0,0,1-2.55.49,6.78,6.78,0,0,1-2.67-.47,4.77,4.77,0,0,1-1.86-1.33,5.52,5.52,0,0,1-1.07-2,9.19,9.19,0,0,1-.35-2.65,9.21,9.21,0,0,1,.34-2.56,5.78,5.78,0,0,1,1.06-2.1A4.82,4.82,0,0,1,64.06,5a6.39,6.39,0,0,1,2.71-.52,6.28,6.28,0,0,1,2.7.52,5,5,0,0,1,1.82,1.42,5.74,5.74,0,0,1,1,2.09,10.31,10.31,0,0,1,.31,2.53Zm-2.8,0a12.26,12.26,0,0,0-.12-1.73,4.61,4.61,0,0,0-.47-1.51A2.8,2.8,0,0,0,68.3,6.8a2.63,2.63,0,0,0-1.53-.4,2.64,2.64,0,0,0-2.53,1.45,4.49,4.49,0,0,0-.5,1.5,11.14,11.14,0,0,0-.14,1.77,6.45,6.45,0,0,0,.73,3.38,2.62,2.62,0,0,0,2.44,1.19,2.59,2.59,0,0,0,1.39-.35,2.79,2.79,0,0,0,.94-1,4.7,4.7,0,0,0,.54-1.44,8.77,8.77,0,0,0,.18-1.84Zm16,1.63a4.83,4.83,0,0,1-1.28,3.55,5.4,5.4,0,0,1-4,1.29,7.82,7.82,0,0,1-2.42-.33,4.18,4.18,0,0,1-1.64-.95,3.66,3.66,0,0,1-.94-1.52,6.65,6.65,0,0,1-.29-2V6.47H74.15V4.72H79V6.47h-1.2V12.8A3,3,0,0,0,78.49,15a3.24,3.24,0,0,0,4,0,2.86,2.86,0,0,0,.73-2.2V6.47H82.06V4.72h4.83V6.47h-1.1v6.26Zm-2.38-9.8a1,1,0,0,1-.32.77,1.08,1.08,0,0,1-.79.3,1.05,1.05,0,0,1-.75-.3,1.06,1.06,0,0,1-.3-.77,1.06,1.06,0,0,1,1-1.07,1,1,0,0,1,.79.31,1,1,0,0,1,.32.76Zm-3.71,0a1,1,0,0,1-.31.77,1.09,1.09,0,0,1-.78.3,1,1,0,0,1-1.07-1.07,1,1,0,0,1,.32-.75,1,1,0,0,1,.73-.32,1.09,1.09,0,0,1,.8.31,1,1,0,0,1,.31.76Zm24.53,12.73h1.25l0,1.75h-5.44V15.66h1l-2-3.21-2,3.21h1.09v1.75H93.5V15.66h1.1l3.19-4.79L94.92,6.51H93.53V4.72h5.41V6.51h-1L99.8,9.42l2-2.91h-1.07V4.72h4.65V6.51h-1.11L101.06,11l3.17,4.7Zm5.48-4.61A8.58,8.58,0,0,0,109.9,13a3.33,3.33,0,0,0,.64,1.38,2.49,2.49,0,0,0,1.17.82,5.13,5.13,0,0,0,1.78.27c.15,0,.34,0,.58,0l.76-.06.83-.12a5,5,0,0,0,.78-.19l.4,1.85a9,9,0,0,1-.87.28q-.5.12-1,.21c-.35,0-.7.1-1.06.13s-.69,0-1,0a7.34,7.34,0,0,1-2.89-.5,4.55,4.55,0,0,1-1.83-1.39,5.11,5.11,0,0,1-1-2,11,11,0,0,1,0-4.84,5.76,5.76,0,0,1,.94-2.13A5.16,5.16,0,0,1,110,5.1a6.69,6.69,0,0,1,3.06-.62,11.61,11.61,0,0,1,1.85.14,9.51,9.51,0,0,1,1.53.38V8.56h-1.86V6.66a4.91,4.91,0,0,0-.75-.13,6,6,0,0,0-.71,0,3.62,3.62,0,0,0-1.58.32,2.8,2.8,0,0,0-1.06.93,4,4,0,0,0-.59,1.43,9,9,0,0,0-.18,1.88Zm16.41,6.36V15.66h1.15v-4h-5.08v4h1.17v1.75h-5.09V15.66h1.29V6.49h-1.29V4.74h5.09V6.49h-1.17V10h5.08V6.49h-1.15V4.74h5.07V6.49h-1.27v9.17h1.27v1.75Zm15.38-1.75L141,13.9h-4.52c-.07.24-.16.51-.28.84s-.2.64-.27.92h1.2v1.75h-4.72V15.66h1l3.84-10.92h3.26l3.71,10.92h1v1.75h-4.85V15.66ZM139.05,7.8c0-.16-.08-.32-.13-.47s-.1-.32-.15-.49h-.05l-.3,1-.33,1c-.12.38-.25.77-.38,1.16s-.25.78-.38,1.17l-.33,1h3.43L139.05,7.8Zm17,5.79V6.49h-1.25V4.74h4.94V6.49h-1.22V17.41H156q-1.23-1.93-2.48-3.83c-.83-1.26-1.65-2.53-2.46-3.83-.16-.25-.32-.51-.47-.77s-.32-.52-.49-.77h0v7.44h1.26v1.75h-5V15.66h1.27c0-1.54,0-3.06,0-4.58s0-3,0-4.59h-1.27V4.74h4.09c.44.72.86,1.38,1.24,2l1.09,1.71c.35.55.7,1.11,1.06,1.66s.72,1.15,1.11,1.81c.19.28.37.56.55.84l.52.87Zm11.77-9.11a13.17,13.17,0,0,1,1.93.14,9.3,9.3,0,0,1,1.61.38V8.48h-1.86V6.68a3.61,3.61,0,0,0-.74-.14,7.86,7.86,0,0,0-.83,0,4,4,0,0,0-1.67.32,2.94,2.94,0,0,0-1.13.93,3.93,3.93,0,0,0-.66,1.43,7.78,7.78,0,0,0-.21,1.88,9.72,9.72,0,0,0,.17,1.88,3.77,3.77,0,0,0,.55,1.4,2.57,2.57,0,0,0,1,.87,3.49,3.49,0,0,0,1.57.31,7.65,7.65,0,0,0,.89-.06,5.72,5.72,0,0,0,.86-.14v-3h-1.64V10.68h4.94v1.64h-.9v4.59a11.28,11.28,0,0,1-2.17.53,15.74,15.74,0,0,1-2.11.15,7.14,7.14,0,0,1-2.88-.51,4.7,4.7,0,0,1-1.82-1.4,5.42,5.42,0,0,1-1-2.07,10.66,10.66,0,0,1-.29-2.51,9.9,9.9,0,0,1,.12-1.51A7.75,7.75,0,0,1,162,8.08a5.84,5.84,0,0,1,.73-1.4,4.89,4.89,0,0,1,1.17-1.14,5.9,5.9,0,0,1,1.68-.77,8.15,8.15,0,0,1,2.28-.29Zm6.23,12.93V15.66h1.28V6.49h-1.26V4.74h10.33V8.46h-1.86v-2H178V10l4.24-.11v1.83L178,11.64v4h4.78V13.57h1.88v3.84Z" transform="translate(0.03 0.04)"/><path class="cls-1" d="M63,27.91a7.08,7.08,0,0,0,.16,1.63,2.78,2.78,0,0,0,.53,1.15,2.19,2.19,0,0,0,1,.69,4.28,4.28,0,0,0,1.48.22h.49l.64-.06c.22,0,.45-.06.69-.1a5.21,5.21,0,0,0,.65-.15L69,32.82a7.07,7.07,0,0,1-.73.23q-.41.11-.84.18c-.3,0-.59.08-.89.1a8.45,8.45,0,0,1-.85,0,6,6,0,0,1-2.4-.42,3.85,3.85,0,0,1-1.53-1.15,4.49,4.49,0,0,1-.81-1.72A9.57,9.57,0,0,1,60.68,28a9.11,9.11,0,0,1,.22-1.91,4.79,4.79,0,0,1,.78-1.79A4.34,4.34,0,0,1,63.25,23a5.5,5.5,0,0,1,2.56-.52,9.08,9.08,0,0,1,1.54.12,7.74,7.74,0,0,1,1.28.31v3H67.07V24.25a3.22,3.22,0,0,0-.62-.11l-.59,0a2.93,2.93,0,0,0-1.32.27,2.28,2.28,0,0,0-.89.77,3.44,3.44,0,0,0-.49,1.2A7.37,7.37,0,0,0,63,27.91Zm14.43,3.85L77,30.3H73.21L73,31c-.09.27-.17.52-.23.76h1v1.46H69.81V31.76h.85l3.2-9.11h2.72l3.1,9.11h.84v1.46h-4V31.76Zm-2-6.56c0-.13-.07-.26-.11-.39l-.12-.41h0l-.25.82-.27.86c-.11.32-.21.64-.32,1s-.21.65-.31,1-.2.6-.28.86h2.86L75.4,25.2Zm14.74.65A3.88,3.88,0,0,1,90,27a3.19,3.19,0,0,1-.6,1.06,3.1,3.1,0,0,1-1.06.76,3.61,3.61,0,0,1-1.57.31h-2v2.63h1.37v1.46h-4.6V31.76h1V24.09h-1V22.63h5a3.75,3.75,0,0,1,2.7.87,3.08,3.08,0,0,1,.91,2.35Zm-5.42-1.76v3.6h1.45a2,2,0,0,0,.65-.1,1.35,1.35,0,0,0,.53-.31,1.48,1.48,0,0,0,.35-.55,2.15,2.15,0,0,0,.13-.81,1.93,1.93,0,0,0-.44-1.39,1.77,1.77,0,0,0-1.28-.44Zm6.93,9.13V31.76h1V24.09h-1V22.63h4.29v1.46h-1v7.67h1v1.46Zm7.88,0V31.76h1.26V24.09h-2v1.74H97.27v-3.2h9.22v3.2h-1.56V24.09h-2v7.67h1.24v1.46Zm14.36-1.46h-1v1.46h4V31.76h-.85L113,22.65H110.3l-3.2,9.11h-.84v1.46h3.94V31.76h-1a7.1,7.1,0,0,1,.23-.76l.23-.7h3.77l.46,1.46Zm-2-6.56L113,28.88h-2.86l.27-.86c.1-.32.21-.64.32-1s.21-.65.31-1,.2-.61.28-.86l.25-.82h0c0,.14.08.28.13.41s.07.26.1.39Zm6.1,8V31.76H119V24.11H118V22.65h4.39v1.46h-1.11v7.65h4V29.83h1.59v3.39Zm19.65-10.79a10.32,10.32,0,0,1,1.61.12,7.49,7.49,0,0,1,1.35.31v2.91H139V24.26a3.18,3.18,0,0,0-.61-.11,5.58,5.58,0,0,0-.7,0,3.28,3.28,0,0,0-1.39.27,2.36,2.36,0,0,0-.94.77,3.32,3.32,0,0,0-.55,1.2,6.19,6.19,0,0,0-.18,1.56,8.25,8.25,0,0,0,.14,1.57,3.26,3.26,0,0,0,.46,1.17,2.15,2.15,0,0,0,.85.73,3,3,0,0,0,1.31.25,7,7,0,0,0,.74,0,4.43,4.43,0,0,0,.72-.13V29h-1.37V27.6h4.12V29h-.75V32.8a8.54,8.54,0,0,1-1.81.44,12.27,12.27,0,0,1-1.76.13,5.76,5.76,0,0,1-2.4-.43,3.87,3.87,0,0,1-1.53-1.17,4.47,4.47,0,0,1-.8-1.72A8.87,8.87,0,0,1,132.3,28a9.26,9.26,0,0,1,.09-1.27,6.13,6.13,0,0,1,.32-1.26,4.73,4.73,0,0,1,.6-1.16,4,4,0,0,1,1-.95,4.76,4.76,0,0,1,1.4-.65,6.7,6.7,0,0,1,1.9-.24Zm11.67,3.27a1.82,1.82,0,0,0-.13-.74,1.27,1.27,0,0,0-.36-.5,1.36,1.36,0,0,0-.53-.28,2.25,2.25,0,0,0-.64-.09H146v3.33h1.54a2.64,2.64,0,0,0,.62-.08,1.38,1.38,0,0,0,.54-.27,1.36,1.36,0,0,0,.39-.53,1.88,1.88,0,0,0,.16-.84ZM146,28.83v2.93h1.12v1.46h-4.3V31.76h1V24.09h-1V22.63h5.23a4.92,4.92,0,0,1,1.57.22,2.91,2.91,0,0,1,1.1.64,2.48,2.48,0,0,1,.65,1,3.93,3.93,0,0,1,.2,1.27,3.66,3.66,0,0,1-.09.78,2.6,2.6,0,0,1-.31.78,2.66,2.66,0,0,1-.56.7,2.27,2.27,0,0,1-.85.48l1.54,3.35,1.18.15v1.19a2.2,2.2,0,0,1-.41.12l-.47.08-.46,0-.35,0a1.48,1.48,0,0,1-1-.29,2.51,2.51,0,0,1-.57-.83l-1.52-3.47Zm17.33-.91a7.16,7.16,0,0,1-.31,2.17,4.83,4.83,0,0,1-.92,1.72A4.35,4.35,0,0,1,160.59,33a5.22,5.22,0,0,1-2.13.41,5.81,5.81,0,0,1-2.23-.39,4,4,0,0,1-1.55-1.11,4.65,4.65,0,0,1-.9-1.71,7.92,7.92,0,0,1-.29-2.2,7.74,7.74,0,0,1,.29-2.14,4.94,4.94,0,0,1,.88-1.76,4,4,0,0,1,1.54-1.18,5.36,5.36,0,0,1,2.26-.43,5.3,5.3,0,0,1,2.26.43,4.17,4.17,0,0,1,1.51,1.19,4.71,4.71,0,0,1,.85,1.74,8.47,8.47,0,0,1,.26,2.11ZM161,28a9.81,9.81,0,0,0-.1-1.45,3.79,3.79,0,0,0-.38-1.26,2.45,2.45,0,0,0-.78-.88,2.18,2.18,0,0,0-1.28-.34,2.23,2.23,0,0,0-2.11,1.21,3.92,3.92,0,0,0-.42,1.25,9,9,0,0,0-.11,1.48,5.54,5.54,0,0,0,.6,2.83,2.21,2.21,0,0,0,2,1,2.24,2.24,0,0,0,1.16-.29,2.33,2.33,0,0,0,.78-.81,3.71,3.71,0,0,0,.46-1.2A8.13,8.13,0,0,0,161,28Zm13.33,1.36a4,4,0,0,1-1.06,3,4.52,4.52,0,0,1-3.34,1.08,6.27,6.27,0,0,1-2-.28,3.46,3.46,0,0,1-1.37-.79,3,3,0,0,1-.78-1.27,5.24,5.24,0,0,1-.25-1.7V24.09h-.89V22.63h4v1.46h-1v5.29a2.45,2.45,0,0,0,.59,1.81,2.73,2.73,0,0,0,3.34,0,2.39,2.39,0,0,0,.61-1.83V24.09h-1V22.63h4v1.46h-.92v5.23Zm10.74-3.47a3.88,3.88,0,0,1-.18,1.15,2.88,2.88,0,0,1-.6,1.06,3.1,3.1,0,0,1-1.06.76,3.57,3.57,0,0,1-1.57.31h-2v2.63H181v1.46h-4.61V31.76h1V24.09h-1V22.63h5a3.79,3.79,0,0,1,2.71.87,3.11,3.11,0,0,1,.9,2.35Zm-5.41-1.76v3.6h1.44a2,2,0,0,0,.65-.1,1.35,1.35,0,0,0,.53-.31,1.48,1.48,0,0,0,.35-.55,2.14,2.14,0,0,0,.14-.81,1.89,1.89,0,0,0-.45-1.39,1.76,1.76,0,0,0-1.28-.44Z" transform="translate(0.03 0.04)"/><rect class="cls-2" x="1.42" y="1.42" width="43.09" height="32.53"/><path class="cls-3" d="M1.38,0H45.89V35.32H0V0ZM43.06,2.79H2.8v29.7H43.06Z" transform="translate(0.03 0.04)"/><path class="cls-3" d="M28.17,29.48A11,11,0,0,0,38.71,22.7l-6.05-2.79a4.94,4.94,0,0,1-4.49,3.38,5.55,5.55,0,0,1-5.64-5.81,5.55,5.55,0,0,1,5.64-5.82A4.94,4.94,0,0,1,32.66,15l6.05-2.82A10.82,10.82,0,0,0,28.17,5.47c-7.28,0-12.78,4.84-12.78,12S20.89,29.48,28.17,29.48Z" transform="translate(0.03 0.04)"/><path class="cls-3" d="M19.24,12.47,15.48,5.85H7.23l7.24,11.31L6.71,29.07H15l4.15-6.95c-.56-1.4-.55-6.3-.87-4.64C17.28,22.59,25.93,15.69,19.24,12.47Z" transform="translate(0.03 0.04)"/><rect class="cls-4" x="30.34" y="15.73" width="9.23" height="3.58"/></svg>