<svg xmlns="http://www.w3.org/2000/svg" width="769.459" height="628.798" viewBox="0 0 769.459 628.798">
  <g id="Group_20" data-name="Group 20" transform="translate(-1322.875 -2737)">
    <ellipse id="Ellipse_3" data-name="Ellipse 3" cx="278.573" cy="278.338" rx="278.573" ry="278.338" transform="translate(1540.61 2737) rotate(8)" opacity="0.04"/>
    <path id="Union_1" data-name="Union 1" d="M216.294,389.052,168.124,477.11H0L155.181,232.115,0,0H181.054l45.494,83.166C275.423,29.309,351.255,0,439.7,0c116.379,0,181.04,64.475,206.913,128.95L530.218,193.425c-12.93-38.69-51.732-64.475-90.52-64.475-77.591,0-116.393,51.583-116.393,116.058s38.8,116.044,116.393,116.044c38.789,0,77.591-38.677,90.52-64.462L646.611,348.16C620.738,412.635,556.077,490,439.7,490,344.814,490,264.434,451.436,216.294,389.052ZM478.487,279.32v-73H667.352v73Z" transform="translate(1322.875 2772.88)" fill="#fecf3d"/>
  </g>
</svg>
