<svg xmlns="http://www.w3.org/2000/svg" width="46.1" height="641.721" viewBox="0 0 46.1 641.721">
  <path id="Path_21" data-name="Path 21" d="M-16.972,368.441q-8.1,0-12.374-3.066a17.445,17.445,0,0,1-6.132-7.555,28.574,28.574,0,0,1-2.081-9.855q-.219-5.365-.219-9.965l.548-374.573a57.4,57.4,0,0,0-.438-6.9,22.658,22.658,0,0,0-1.971-6.9,17.685,17.685,0,0,0-4.38-5.8,15.5,15.5,0,0,0-7.665-3.395v-9.855q7.884-1.533,11.169-8.213a33.537,33.537,0,0,0,3.285-15l-.548-144.289q0-4.6.219-10.841A45.876,45.876,0,0,1-35.588-259.7a22.9,22.9,0,0,1,5.694-9.636q3.942-3.942,11.388-3.942H-5.584v11.826h-5.037q-5.913,0-8.431,4.052A19.429,19.429,0,0,0-21.571-247l.548,155.02a70.559,70.559,0,0,1-.548,8.76,32.87,32.87,0,0,1-1.971,7.994,20.237,20.237,0,0,1-3.942,6.351,14.982,14.982,0,0,1-6.68,4.052,25.15,25.15,0,0,1,7.446,5.8,21.736,21.736,0,0,1,3.942,7.227,34.58,34.58,0,0,1,1.533,9.2q.219,5.147.219,11.717l-.548,373.259a24.58,24.58,0,0,0,1.861,10.074q1.861,4.161,8.212,4.161h5.913v11.826Z" transform="translate(51.684 273.28)" fill="#fecf3d"/>
</svg>
