<svg xmlns="http://www.w3.org/2000/svg" width="253.502" height="48.987" viewBox="0 0 253.502 48.987">
  <g id="Layer_x0020_1" transform="translate(0.244 0.244)">
    <g id="_2310639731936" transform="translate(2 2)">
      <path id="Path_3" data-name="Path 3" d="M17.6-12.02a11.915,11.915,0,0,1-.5,3.544A8.013,8.013,0,0,1,15.586-5.65a7.05,7.05,0,0,1-2.5,1.879,8.3,8.3,0,0,1-3.481.681A9.452,9.452,0,0,1,5.95-3.733,6.6,6.6,0,0,1,3.414-5.549a7.564,7.564,0,0,1-1.476-2.8,12.787,12.787,0,0,1-.479-3.62,12.756,12.756,0,0,1,.467-3.506,8.138,8.138,0,0,1,1.45-2.876A6.776,6.776,0,0,1,5.9-20.294,8.842,8.842,0,0,1,9.607-21a8.621,8.621,0,0,1,3.7.719,6.748,6.748,0,0,1,2.485,1.942,7.774,7.774,0,0,1,1.387,2.85A13.564,13.564,0,0,1,17.6-12.02Zm-3.834.05a16.929,16.929,0,0,0-.164-2.371,6.336,6.336,0,0,0-.631-2.056,3.937,3.937,0,0,0-1.274-1.45A3.622,3.622,0,0,0,9.607-18.4a3.875,3.875,0,0,0-2.132.542,3.924,3.924,0,0,0-1.337,1.438,6.366,6.366,0,0,0-.681,2.056,15.035,15.035,0,0,0-.189,2.422,8.908,8.908,0,0,0,1,4.629A3.608,3.608,0,0,0,9.607-5.688,3.553,3.553,0,0,0,11.5-6.167a3.844,3.844,0,0,0,1.286-1.312,6.266,6.266,0,0,0,.744-1.98A12.29,12.29,0,0,0,13.769-11.969ZM35.615-9.735a6.617,6.617,0,0,1-1.741,4.851Q32.133-3.115,28.4-3.115a10.629,10.629,0,0,1-3.317-.455,5.751,5.751,0,0,1-2.245-1.3,5.035,5.035,0,0,1-1.274-2.072,8.911,8.911,0,0,1-.4-2.792V-18.3H19.7v-2.4h6.609v2.4h-1.64v8.662a4.031,4.031,0,0,0,.962,2.976,3.8,3.8,0,0,0,2.784.95,3.815,3.815,0,0,0,2.7-.924,3.923,3.923,0,0,0,1-3V-18.3H30.519v-2.4h6.609v2.4H35.615ZM32.361-23.144a1.4,1.4,0,0,1-.429,1.047,1.494,1.494,0,0,1-1.085.416,1.389,1.389,0,0,1-1.022-.416,1.419,1.419,0,0,1-.416-1.047,1.431,1.431,0,0,1,.416-1.034,1.368,1.368,0,0,1,1.022-.429,1.494,1.494,0,0,1,1.085.416A1.4,1.4,0,0,1,32.361-23.144Zm-5.07,0a1.4,1.4,0,0,1-.429,1.047,1.462,1.462,0,0,1-1.059.416,1.419,1.419,0,0,1-1.047-.416,1.42,1.42,0,0,1-.416-1.047,1.409,1.409,0,0,1,.429-1.034,1.381,1.381,0,0,1,1.009-.429,1.494,1.494,0,0,1,1.085.416A1.4,1.4,0,0,1,27.29-23.144ZM60.84-5.739h1.715l.025,2.4H55.139v-2.4h1.438L53.8-10.128,51-5.739H52.49v2.4H46.159v-2.4h1.514l4.364-6.546L48.1-18.25H46.209V-20.7H53.6v2.447H52.238l2.548,3.986L57.46-18.25H56V-20.7h6.357v2.447H60.84L56.5-12.159Zm7.492-6.306A11.88,11.88,0,0,0,68.6-9.371a4.686,4.686,0,0,0,.87,1.892,3.579,3.579,0,0,0,1.6,1.123,7.1,7.1,0,0,0,2.434.366q.3,0,.795-.025T75.344-6.1q.555-.063,1.135-.164a8.182,8.182,0,0,0,1.059-.252L78.094-4a11.97,11.97,0,0,1-1.2.378,13.948,13.948,0,0,1-1.387.29q-.719.114-1.45.177t-1.387.063a9.825,9.825,0,0,1-3.948-.694,6.344,6.344,0,0,1-2.51-1.892A7.175,7.175,0,0,1,64.9-8.488a15.234,15.234,0,0,1-.378-3.481,14.624,14.624,0,0,1,.353-3.128,7.905,7.905,0,0,1,1.286-2.926,7.039,7.039,0,0,1,2.573-2.157,9.115,9.115,0,0,1,4.187-.845,15.41,15.41,0,0,1,2.523.189,13.145,13.145,0,0,1,2.094.517v4.868H74.991v-2.6a7.015,7.015,0,0,0-1.022-.177q-.517-.05-.971-.05a4.836,4.836,0,0,0-2.157.441,3.693,3.693,0,0,0-1.45,1.261,5.63,5.63,0,0,0-.807,1.968A11.956,11.956,0,0,0,68.332-12.045Zm22.451,8.7v-2.4h1.564v-5.474H85.409v5.474H87v2.4H80.036v-2.4H81.8V-18.276H80.036v-2.4H87v2.4H85.409v4.793h6.937v-4.793H90.782v-2.4h6.937v2.4H95.979V-5.739h1.741v2.4Zm21.038-2.4-.757-2.4h-6.18q-.151.474-.378,1.148t-.378,1.248h1.64v2.4H99.309v-2.4H100.7l5.247-14.933h4.465l5.07,14.933h1.387v2.4h-6.634v-2.4Zm-3.355-10.746q-.076-.328-.177-.643t-.2-.668h-.076l-.4,1.337q-.2.631-.454,1.413t-.517,1.589q-.265.807-.517,1.589t-.454,1.413h4.692Zm23.283,7.921v-9.712h-1.715v-2.4h6.76v2.4h-1.665V-3.342H131.6q-1.69-2.649-3.393-5.234t-3.368-5.234q-.328-.53-.643-1.059t-.668-1.059q-.025,0-.025.013t-.025.013V-5.739h1.715v2.4h-6.811v-2.4h1.741q0-3.147.013-6.256t.013-6.281H118.4v-2.4H124q.908,1.488,1.69,2.686t1.5,2.333l1.438,2.27q.719,1.135,1.526,2.472.378.58.744,1.16t.719,1.186Zm16.094-12.461a17.6,17.6,0,0,1,2.636.189,12.754,12.754,0,0,1,2.207.517v4.768h-2.548v-2.472a5.848,5.848,0,0,0-1.009-.189,10.5,10.5,0,0,0-1.135-.063,5.367,5.367,0,0,0-2.283.441,4,4,0,0,0-1.551,1.261,5.571,5.571,0,0,0-.9,1.968,10.456,10.456,0,0,0-.29,2.56,13.191,13.191,0,0,0,.227,2.573,5.2,5.2,0,0,0,.757,1.917,3.482,3.482,0,0,0,1.387,1.2,4.9,4.9,0,0,0,2.144.416,11.1,11.1,0,0,0,1.211-.076,9.079,9.079,0,0,0,1.186-.2V-10.3H147.64v-2.245h6.76V-10.3h-1.236v6.281A15.4,15.4,0,0,1,150.2-3.3a20.8,20.8,0,0,1-2.888.214,9.579,9.579,0,0,1-3.935-.706,6.412,6.412,0,0,1-2.5-1.917,7.429,7.429,0,0,1-1.324-2.825,14.537,14.537,0,0,1-.391-3.431,14.619,14.619,0,0,1,.151-2.068,10.348,10.348,0,0,1,.517-2.068,8.076,8.076,0,0,1,1-1.9,6.307,6.307,0,0,1,1.6-1.564,8.028,8.028,0,0,1,2.3-1.059A11.058,11.058,0,0,1,147.842-21.025Zm8.526,17.683v-2.4h1.741V-18.276h-1.715v-2.4H170.52v5.1h-2.548v-2.7h-6.231v4.843l5.8-.151v2.5l-5.8-.151v5.5h6.533v-2.85h2.573v5.247Z" transform="translate(80.17 24.811)" fill="#2b2a29"/>
      <path id="Path_4" data-name="Path 4" d="M4.4-9.582a9.914,9.914,0,0,0,.221,2.231,3.911,3.911,0,0,0,.726,1.579,2.987,2.987,0,0,0,1.337.937,5.926,5.926,0,0,0,2.031.305q.253,0,.663-.021t.874-.074q.463-.053.947-.137a6.828,6.828,0,0,0,.884-.211l.463,2.105a9.989,9.989,0,0,1-1,.316,11.64,11.64,0,0,1-1.158.242q-.6.095-1.21.147t-1.158.053a8.2,8.2,0,0,1-3.295-.579A5.294,5.294,0,0,1,2.628-4.267,5.988,5.988,0,0,1,1.534-6.614a12.713,12.713,0,0,1-.316-2.905,12.2,12.2,0,0,1,.295-2.61,6.6,6.6,0,0,1,1.074-2.442,5.874,5.874,0,0,1,2.147-1.8,7.607,7.607,0,0,1,3.495-.705,12.86,12.86,0,0,1,2.105.158,10.97,10.97,0,0,1,1.747.432v4.063H9.954v-2.168A5.854,5.854,0,0,0,9.1-14.74q-.432-.042-.81-.042a4.036,4.036,0,0,0-1.8.368,3.082,3.082,0,0,0-1.21,1.053,4.7,4.7,0,0,0-.674,1.642A9.978,9.978,0,0,0,4.4-9.582ZM24.143-4.319l-.632-2H18.354q-.126.4-.316.958t-.316,1.042h1.368v2H13.7v-2h1.158l4.379-12.462h3.726L27.2-4.319h1.158v2H22.817v-2Zm-2.8-8.968q-.063-.274-.147-.537t-.168-.558h-.063l-.337,1.116q-.168.526-.379,1.179t-.432,1.326q-.221.674-.432,1.326t-.379,1.179h3.916ZM41.51-12.4a5.223,5.223,0,0,1-.253,1.579,3.949,3.949,0,0,1-.821,1.442A4.358,4.358,0,0,1,38.984-8.33a5.074,5.074,0,0,1-2.147.411H34.1v3.6h1.874v2H29.679v-2h1.41V-14.8h-1.41v-2h6.884a5.167,5.167,0,0,1,3.705,1.189A4.236,4.236,0,0,1,41.51-12.4ZM34.1-14.8v4.926h1.979a2.83,2.83,0,0,0,.884-.137,1.855,1.855,0,0,0,.726-.433,2.1,2.1,0,0,0,.484-.75,3.039,3.039,0,0,0,.179-1.11,2.563,2.563,0,0,0-.61-1.892,2.383,2.383,0,0,0-1.747-.6ZM43.573-2.319v-2H45V-14.8H43.573v-2h5.873v2H48.015V-4.319h1.431v2Zm10.778,0v-2h1.726V-14.8H53.362l.021,2.379H51.257V-16.8h12.61v4.379H61.741V-14.8H59.067V-4.319h1.705v2Zm19.641-2-.632-2H68.2q-.126.4-.316.958t-.316,1.042H68.94v2H63.551v-2h1.158l4.379-12.462h3.726L77.045-4.319H78.2v2H72.666v-2Zm-2.8-8.968q-.063-.274-.147-.537t-.168-.558h-.063l-.337,1.116q-.168.526-.379,1.179t-.432,1.326q-.221.674-.432,1.326t-.379,1.179h3.916ZM79.529-2.319v-2H81V-14.782H79.55v-2h6v2H84.034V-4.319h5.431V-6.951h2.168v4.631Z" transform="translate(80.203 45.392)" fill="#2b2a29"/>
      <path id="Path_5" data-name="Path 5" d="M8.46-17.076a14.685,14.685,0,0,1,2.2.158,10.644,10.644,0,0,1,1.842.432v3.979H10.375v-2.063a4.881,4.881,0,0,0-.842-.158,8.766,8.766,0,0,0-.947-.053,4.479,4.479,0,0,0-1.905.368,3.334,3.334,0,0,0-1.295,1.053,4.649,4.649,0,0,0-.747,1.642A8.726,8.726,0,0,0,4.4-9.582a11.008,11.008,0,0,0,.189,2.147,4.342,4.342,0,0,0,.632,1.6,2.906,2.906,0,0,0,1.158,1,4.087,4.087,0,0,0,1.789.347,9.261,9.261,0,0,0,1.01-.063,7.577,7.577,0,0,0,.989-.168V-8.13H8.291V-10h5.642V-8.13H12.9v5.242a12.853,12.853,0,0,1-2.474.6,17.359,17.359,0,0,1-2.41.179A7.994,7.994,0,0,1,4.734-2.7,5.351,5.351,0,0,1,2.649-4.3,6.2,6.2,0,0,1,1.544-6.656a12.131,12.131,0,0,1-.326-2.863,12.2,12.2,0,0,1,.126-1.726,8.636,8.636,0,0,1,.432-1.726,6.74,6.74,0,0,1,.832-1.589,5.264,5.264,0,0,1,1.337-1.305A6.7,6.7,0,0,1,5.86-16.75,9.229,9.229,0,0,1,8.46-17.076ZM24.417-12.6a2.6,2.6,0,0,0-.179-1.015,1.785,1.785,0,0,0-.495-.687,1.941,1.941,0,0,0-.726-.381,3.192,3.192,0,0,0-.874-.116H19.975v4.547H22.08a3.445,3.445,0,0,0,.842-.106,1.911,1.911,0,0,0,.747-.37,1.969,1.969,0,0,0,.537-.719A2.749,2.749,0,0,0,24.417-12.6ZM19.975-8.319v4h1.537v2H15.617v-2h1.368V-14.8H15.617v-2h7.157a6.731,6.731,0,0,1,2.147.306,4.1,4.1,0,0,1,1.505.865,3.388,3.388,0,0,1,.884,1.339,5.021,5.021,0,0,1,.284,1.729,4.833,4.833,0,0,1-.126,1.065,3.893,3.893,0,0,1-.421,1.075,3.9,3.9,0,0,1-.768.949,3.217,3.217,0,0,1-1.168.664l2.105,4.576,1.621.208V-2.4a3.016,3.016,0,0,1-.568.168q-.316.063-.642.105t-.621.063q-.295.021-.484.021a1.993,1.993,0,0,1-1.347-.389A3.282,3.282,0,0,1,24.4-3.582L22.311-8.319Zm23.7-1.242A9.944,9.944,0,0,1,43.258-6.6a6.687,6.687,0,0,1-1.263,2.358A5.884,5.884,0,0,1,39.91-2.677a6.922,6.922,0,0,1-2.905.568,7.888,7.888,0,0,1-3.052-.537,5.512,5.512,0,0,1-2.116-1.516A6.312,6.312,0,0,1,30.606-6.5a10.671,10.671,0,0,1-.4-3.021,10.646,10.646,0,0,1,.389-2.926,6.791,6.791,0,0,1,1.21-2.4,5.655,5.655,0,0,1,2.105-1.621,7.379,7.379,0,0,1,3.095-.589,7.2,7.2,0,0,1,3.084.6,5.631,5.631,0,0,1,2.074,1.621,6.488,6.488,0,0,1,1.158,2.379A11.32,11.32,0,0,1,43.679-9.561Zm-3.2.042a14.127,14.127,0,0,0-.137-1.979,5.287,5.287,0,0,0-.526-1.716,3.286,3.286,0,0,0-1.063-1.21,3.023,3.023,0,0,0-1.747-.463,3.234,3.234,0,0,0-1.779.453,3.275,3.275,0,0,0-1.116,1.2,5.312,5.312,0,0,0-.568,1.716A12.547,12.547,0,0,0,33.384-9.5a7.434,7.434,0,0,0,.832,3.863,3.011,3.011,0,0,0,2.789,1.358,2.965,2.965,0,0,0,1.579-.4,3.208,3.208,0,0,0,1.074-1.095,5.229,5.229,0,0,0,.621-1.653A10.257,10.257,0,0,0,40.479-9.519Zm18.23,1.864a5.522,5.522,0,0,1-1.453,4.049A6.177,6.177,0,0,1,52.689-2.13a8.87,8.87,0,0,1-2.768-.38A4.8,4.8,0,0,1,48.047-3.6a4.2,4.2,0,0,1-1.063-1.729,7.437,7.437,0,0,1-.337-2.33V-14.8H45.426v-2h5.515v2H49.573v7.229a3.364,3.364,0,0,0,.8,2.484A3.17,3.17,0,0,0,52.7-4.3a3.183,3.183,0,0,0,2.25-.771,3.274,3.274,0,0,0,.834-2.5V-14.8H54.457v-2h5.515v2H58.709ZM73.4-12.4a5.223,5.223,0,0,1-.253,1.579,3.949,3.949,0,0,1-.821,1.442A4.358,4.358,0,0,1,70.877-8.33a5.074,5.074,0,0,1-2.147.411H65.993v3.6h1.874v2H61.572v-2h1.41V-14.8h-1.41v-2h6.884a5.167,5.167,0,0,1,3.705,1.189A4.236,4.236,0,0,1,73.4-12.4Zm-7.41-2.4v4.926h1.979a2.83,2.83,0,0,0,.884-.137,1.855,1.855,0,0,0,.726-.433,2.1,2.1,0,0,0,.484-.75,3.039,3.039,0,0,0,.179-1.11,2.563,2.563,0,0,0-.61-1.892,2.383,2.383,0,0,0-1.747-.6Z" transform="translate(177.855 45.392)" fill="#2b2a29"/>
      <rect id="Rectangle_6" data-name="Rectangle 6" width="58.945" height="44.5" fill="#fecf3d" stroke="#2b2a29" stroke-width="4.487"/>
      <path id="Path_1" data-name="Path 1" d="M42.148,40.975a14.574,14.574,0,0,0,13.827-9.256L48.2,28.353c-.864,1.683-3.457,4.207-6.049,4.207-5.185,0-7.778-3.366-7.778-7.573s2.593-7.573,7.778-7.573A6.489,6.489,0,0,1,48.2,21.622l7.778-4.207C54.246,13.207,49.925,9,42.148,9,31.778,9,24,14.89,24,24.987,24,34.243,31.778,40.975,42.148,40.975Z" transform="translate(-4.988 -3)" fill="#2b2a29"/>
      <path id="Path_2" data-name="Path 2" d="M28.284,18.506,23.1,9H11L21.37,24.555,11,40.975H22.234l5.185-9.506c-.864-1.728-.864-8.642-.864-6.049C24.827,32.333,36.925,22.827,28.284,18.506Z" transform="translate(-3.222 -3)" fill="#2b2a29"/>
      <rect id="Rectangle_7" data-name="Rectangle 7" width="12.62" height="3.892" transform="translate(39.752 20)" fill="#2b2a29"/>
    </g>
  </g>
</svg>
