<svg xmlns="http://www.w3.org/2000/svg" width="55.4" height="68.982" viewBox="0 0 55.4 68.982">
  <g id="Icon_2_kachestvo" data-name="Icon 2/kachestvo" transform="translate(0.7 0.7)">
    <path id="Path" d="M7.3,58.6H4.15A3.15,3.15,0,0,1,1,55.45V4.15A3.15,3.15,0,0,1,4.15,1h38.7A3.15,3.15,0,0,1,46,4.15v51.3a3.15,3.15,0,0,1-3.15,3.15H32.05" transform="translate(-1 -1)" fill="none" stroke="#2b2a29" stroke-width="1.4"/>
    <path id="Path_2" d="M53.2,9H55a3.15,3.15,0,0,1,3.15,3.15v51.3A3.15,3.15,0,0,1,55,66.6H32.5" transform="translate(-4.15 -1.8)" fill="none" stroke="#2b2a29" stroke-width="1.4"/>
    <path id="Path_Copy_3" data-name="Path Copy 3" d="M16.823,34.941a1.207,1.207,0,0,1,2.355,0,2.443,2.443,0,0,0,3.688,1.527,1.208,1.208,0,0,1,1.666,1.666,2.443,2.443,0,0,0,1.527,3.688,1.207,1.207,0,0,1,0,2.355,2.443,2.443,0,0,0-1.527,3.688,1.208,1.208,0,0,1-1.666,1.666,2.443,2.443,0,0,0-3.688,1.527,1.207,1.207,0,0,1-2.355,0,2.443,2.443,0,0,0-3.688-1.527,1.208,1.208,0,0,1-1.666-1.666,2.443,2.443,0,0,0-1.527-3.688,1.207,1.207,0,0,1,0-2.355,2.443,2.443,0,0,0,1.527-3.688,1.208,1.208,0,0,1,1.666-1.666A2.443,2.443,0,0,0,16.823,34.941Z" transform="translate(-1.8 -4.3)" fill="#fafafa" stroke="#fecf3d" stroke-width="1.4"/>
    <path id="Oval_Copy" data-name="Oval Copy" d="M18.5,48A4.5,4.5,0,1,0,14,43.5,4.5,4.5,0,0,0,18.5,48Z" transform="translate(-2.3 -4.8)" fill="#fafafa" stroke="#fecf3d" stroke-width="1.4"/>
    <path id="Path_Copy_4" data-name="Path Copy 4" d="M17.316,66.927,11,73.2V57H24.5V73.2l-6.316-6.273-.434-.43Z" transform="translate(-2 -6.6)" fill="#fafafa" stroke="#fecf3d" stroke-width="1.4"/>
    <path id="Path_Copy" data-name="Path Copy" d="M9.611,14.5h29.15" transform="translate(-1.861 -2.35)" fill="none" stroke="#2b2a29" stroke-width="1.4"/>
    <path id="Path_Copy_2" data-name="Path Copy 2" d="M9,23H33.3" transform="translate(-1.8 -3.2)" fill="none" stroke="#2b2a29" stroke-width="1.4"/>
    <path id="Path_Copy_6" data-name="Path Copy 6" d="M34.571,49.5h6.686" transform="translate(-4.357 -5.85)" fill="none" stroke="#2b2a29" stroke-width="1.4"/>
  </g>
</svg>
