<svg xmlns="http://www.w3.org/2000/svg" width="317.429" height="34.805" viewBox="0 0 317.429 34.805">
  <path id="Path_21" data-name="Path 21" d="M-25.477,44.149q-6.118,0-9.342-2.315a13.171,13.171,0,0,1-4.63-5.7,21.574,21.574,0,0,1-1.571-7.441q-.165-4.051-.165-7.523l.413-115.732a43.339,43.339,0,0,0-.331-5.208,17.107,17.107,0,0,0-1.488-5.208,13.352,13.352,0,0,0-3.307-4.382,11.7,11.7,0,0,0-5.787-2.563v-7.441a11.2,11.2,0,0,0,8.433-6.2,25.321,25.321,0,0,0,2.48-11.326l-.413-108.938q0-3.472.165-8.185a34.637,34.637,0,0,1,1.488-9.011,17.288,17.288,0,0,1,4.3-7.275q2.976-2.976,8.6-2.976h9.755v8.929h-3.8q-4.464,0-6.366,3.059a14.669,14.669,0,0,0-1.9,7.854l.413,117.04a53.272,53.272,0,0,1-.413,6.614,24.817,24.817,0,0,1-1.488,6.035,15.279,15.279,0,0,1-2.976,4.8,11.311,11.311,0,0,1-5.043,3.059,18.988,18.988,0,0,1,5.622,4.382,16.411,16.411,0,0,1,2.976,5.456A26.108,26.108,0,0,1-28.7-99.113q.165,3.886.165,8.846l-.413,114.74a18.558,18.558,0,0,0,1.405,7.606q1.405,3.142,6.2,3.142h4.464v8.929Z" transform="translate(273.28 -16.879) rotate(-90)" fill="#fecf3d"/>
</svg>
