<svg xmlns="http://www.w3.org/2000/svg" width="78.841" height="61.7" viewBox="0 0 78.841 61.7">
  <g id="Icon_2_voronka" data-name="Icon 2/voronka" transform="translate(0.721 0.7)">
    <path id="Path" d="M31.331,49.8,24,39H60.9L53.569,49.8Z" transform="translate(-3.3 -4.8)" fill="none" stroke="#2b2a29" stroke-width="1.4"/>
    <path id="Path_2" d="M61.666,31.8H20.134L13,21H68.8Z" transform="translate(-2.2 -3)" fill="none" stroke="#fecf3d" stroke-width="1.4"/>
    <path id="Path_3" d="M78.165,3.17,70.714,14.5H8.686L1.235,3.17A1.39,1.39,0,0,1,2.334,1H77.066A1.39,1.39,0,0,1,78.165,3.17Z" transform="translate(-1 -1)" fill="none" stroke="#2b2a29" stroke-width="1.4"/>
    <path id="Path_4" d="M42,66.22,35,56H51.2l-7,10.22A1.334,1.334,0,0,1,42,66.22Z" transform="translate(-4.4 -6.5)" fill="none" stroke="#fecf3d" stroke-width="1.4" fill-rule="evenodd"/>
  </g>
</svg>
