<svg xmlns="http://www.w3.org/2000/svg" width="73.671" height="60.08" viewBox="0 0 73.671 60.08">
  <g id="Icon_2_users" data-name="Icon 2/users" transform="translate(0.722 0.797)">
    <path id="Path" d="M62.3,50.15l4.731,1.968s11.813-5.97,11.7-6.034l-5.269-2.905a2.2,2.2,0,0,1-1.129-1.926A16.01,16.01,0,0,1,72.2,38l1.781-4.142.28-.221a2.752,2.752,0,0,0,1.042-2.16V29.968a2.174,2.174,0,0,0-.338-1.166,1.635,1.635,0,0,1-.235-1.112l.127-.869a5.01,5.01,0,0,0-2.014-4.874c-.533-.37-1.068-.719-1.506-.962a7.334,7.334,0,0,0-5.62-.7c-.54.19-.66,1.044-1.652,1.392a4.2,4.2,0,0,0-2.528,2.944,4.041,4.041,0,0,0-.116,1.083v2.6a1.469,1.469,0,0,1-.142.629,1.953,1.953,0,0,0-.189.839v1.713A3.311,3.311,0,0,0,62,33.769l.083.089,1.791,3.769A10.707,10.707,0,0,1,64.1,41.6a3.861,3.861,0,0,1-1.987,2.157L56,46.956" transform="translate(-6.5 -2.9)" fill="none" stroke="#fecf3d" stroke-width="1.4"/>
    <path id="Path_2" d="M17.429,50.15,12.7,52.118S.884,46.148,1,46.083L6.27,43.178A2.2,2.2,0,0,0,7.4,41.253,16.007,16.007,0,0,0,7.529,38L5.747,33.858l-.28-.221a2.752,2.752,0,0,1-1.042-2.16V29.968A2.174,2.174,0,0,1,4.763,28.8,1.636,1.636,0,0,0,5,27.691l-.127-.869a5.01,5.01,0,0,1,2.014-4.874c.533-.37,1.068-.719,1.506-.962a7.335,7.335,0,0,1,5.62-.7c.54.19.66,1.044,1.652,1.392a4.2,4.2,0,0,1,2.528,2.944,4.044,4.044,0,0,1,.116,1.083v2.6a1.469,1.469,0,0,0,.142.629,1.953,1.953,0,0,1,.189.839v1.713a3.311,3.311,0,0,1-.908,2.28l-.083.089-1.791,3.769a10.707,10.707,0,0,0-.227,3.973,3.861,3.861,0,0,0,1.987,2.157l6.113,3.2" transform="translate(-1 -2.9)" fill="none" stroke="#fecf3d" stroke-width="1.4"/>
    <path id="Path_3" d="M30.036,42.781a2.109,2.109,0,0,0,1.147-1.871v-4.8a5.215,5.215,0,0,0-.312-1.776l-3.806-8.033-1.29-.955a3.153,3.153,0,0,1-1.284-2.535v-3.6a3.819,3.819,0,0,1,.656-2.139,2.864,2.864,0,0,0,.458-2.044l-.333-2.136A8,8,0,0,1,28.682,4.95C29.909,4.135,31.2,3.329,32.213,2.8,35.565,1.058,39.936.468,43.156,1.529c1.054.347,1.287,1.906,3.219,2.541a7.935,7.935,0,0,1,5.042,5.817,4.61,4.61,0,0,1,.107,1.084v5.2a2.56,2.56,0,0,0,.276,1.153,3.4,3.4,0,0,1,.368,1.538v4.229a3.146,3.146,0,0,1-.94,2.24l-.991.978L47.2,34.085a5.226,5.226,0,0,0-.565,2.362v3.131A4.219,4.219,0,0,0,49,43.356L58.3,47.948a.9.9,0,0,1,.018,1.605L39.228,59.5,19.3,49.957a.9.9,0,0,1-.025-1.611Z" transform="translate(-2.779 -1)" fill="none" stroke="#2b2a29" stroke-width="1.4" fill-rule="evenodd"/>
  </g>
</svg>
