<svg xmlns="http://www.w3.org/2000/svg" width="54.588" height="42.311" viewBox="0 0 54.588 42.311">
  <g id="Layer_x0020_1" transform="translate(0.244 0.244)">
    <g id="_2310639731936" transform="translate(2 2)">
      <rect id="Rectangle_6" data-name="Rectangle 6" width="50.101" height="37.824" fill="#fecf3d" stroke="#2b2a29" stroke-width="4.487"/>
      <path id="Path_1" data-name="Path 1" d="M39.425,36.177A12.388,12.388,0,0,0,51.177,28.31l-6.611-2.861c-.735,1.43-2.938,3.576-5.142,3.576-4.407,0-6.611-2.861-6.611-6.437s2.2-6.437,6.611-6.437a5.516,5.516,0,0,1,5.142,3.576l6.611-3.576C49.708,12.576,46.036,9,39.425,9,30.611,9,24,14.006,24,22.589,24,30.456,30.611,36.177,39.425,36.177Z" transform="translate(-7.841 -3.9)" fill="#2b2a29"/>
      <path id="Path_2" data-name="Path 2" d="M25.69,17.08,21.283,9H11l8.814,13.221L11,36.177h9.549l4.407-8.08c-.735-1.469-.735-7.345-.735-5.142C22.752,28.832,33.036,20.752,25.69,17.08Z" transform="translate(-4.389 -3.9)" fill="#2b2a29"/>
      <rect id="Rectangle_7" data-name="Rectangle 7" width="10.727" height="3.308" transform="translate(33.788 16.999)" fill="#2b2a29"/>
    </g>
  </g>
</svg>
