<svg xmlns="http://www.w3.org/2000/svg" width="358.609" height="293.054" viewBox="0 0 358.609 293.054">
  <g id="Group_11" data-name="Group 11" transform="translate(204.125 -2886)">
    <ellipse id="Ellipse_3" data-name="Ellipse 3" cx="129.83" cy="129.721" rx="129.83" ry="129.721" transform="translate(-102.649 2886) rotate(8)" opacity="0.04"/>
    <path id="Union_1" data-name="Union 1" d="M100.8,181.319l-22.45,41.04H0L72.323,108.178,0,0H84.381l21.2,38.76C128.362,13.659,163.7,0,204.923,0c54.239,0,84.375,30.049,96.432,60.1L247.11,90.147C241.084,72.115,223,60.1,204.923,60.1c-36.161,0-54.245,24.04-54.245,54.089s18.084,54.083,54.245,54.083c18.078,0,36.161-18.026,42.187-30.043l54.245,24.034c-12.058,30.049-42.194,66.106-96.432,66.106C160.7,228.367,123.24,210.394,100.8,181.319ZM223,130.178V96.155h88.021v34.023Z" transform="translate(-204.125 2902.722)" fill="#fecf3d"/>
  </g>
</svg>
